<svg xmlns="http://www.w3.org/2000/svg" viewBox="0 0 2048 2048" width="32" height="32">
<rect width="2048" height="2048" rx="400" fill="#04060E"/>
<path d="M584.837 325.482L1182.93 325.291L1386.95 325.214C1416.36 325.239 1464.77 323.856 1492.93 326.075C1508.57 327.423 1523.82 331.715 1537.87 338.725C1569.91 354.407 1592.63 380.599 1604.13 414.392C1608.04 425.741 1610.37 437.573 1611.06 449.557C1612.89 480.28 1611.43 526.67 1611.39 558.063L1611.34 761.173L1611.16 932.774C1611.33 985.545 1613.27 1037.81 1606.31 1090.23C1597.65 1155.39 1580.05 1225.41 1550.96 1284.55C1513 1362.23 1458.87 1430.89 1392.18 1485.91C1374.23 1500.6 1344.72 1518.68 1324.76 1532.33L1174.09 1634.67L1100.71 1684.71C1085.45 1695.11 1062.52 1712.52 1046 1718.75C1031.75 1724.13 1005.29 1721.52 992.486 1713.67C975.025 1702.98 955.285 1689.31 937.906 1677.62L886.029 1642.64C850.927 1618.85 828.078 1603.73 815.795 1559.9C806.983 1528.01 811.131 1493.94 827.335 1465.09C846.819 1431.05 884.199 1408.96 922.831 1406.34C945.61 1404.8 971.317 1406.74 994.652 1405.75C1025.77 1404.52 1056.65 1399.75 1086.7 1391.55C1193.76 1362.3 1285.74 1287.52 1340.5 1191.46C1397.97 1091.63 1413.15 972.963 1382.66 861.878C1352.25 751.303 1278.84 661.18 1179.64 604.683C1121.85 572.911 1049.22 551.079 983.012 550.917L910.232 551.114C888.613 551.091 864.545 550.471 843.327 552.499C797.468 556.883 746.535 578.715 713.975 611.791C683.806 642.439 664.911 682.732 656.275 724.612C649.093 759.44 649.994 791.284 649.941 826.46L649.921 916.495L650.34 1231.58C690.723 1219.55 735.062 1200.49 764.632 1170C792.563 1141.2 812.698 1109.56 823.031 1070.43C830.707 1041.36 829.378 1016.4 829.327 987L829.316 923.402L829.698 729.953L939.905 729.858C959.426 729.837 988.483 728.913 1006.75 731.576C1071.44 741.007 1131.1 780.419 1169.98 832.075C1208.04 883.432 1224.39 947.682 1215.53 1010.98C1200.16 1115.34 1112.26 1209.46 1006.76 1223.77C981.926 1227.14 951.549 1225.87 926.219 1226.04C815.052 1226.8 714.08 1281.22 670.131 1386.8C657.349 1417.39 651.169 1443.92 646.593 1476.81C634.782 1466.69 623.249 1456.24 612.007 1445.48C494.808 1331.97 438.066 1174.7 437.255 1013.67C436.601 883.902 437.136 753.891 437.097 624.11L437.034 509.409C437.028 487.871 436.077 452.008 439.68 431.785C444.006 406.763 455.786 383.63 473.478 365.415C506.92 331.264 539.947 325.772 584.837 325.482z" fill="#0A84FF"/>
</svg>
