<svg xmlns="http://www.w3.org/2000/svg" height="1024" preserveAspectRatio="none" style="display: block;" version="1.1" viewBox="0 0 2048 2048" width="1024">
<path d="M 0 0 L 2048 0 L 2048 2048 L 0 2048 L 0 0 z" fill="rgb(255,255,255)" transform="translate(0,0)"></path>
<path d="M 584.837 325.482 L 1182.93 325.291 L 1386.95 325.214 C 1416.36 325.239 1464.77 323.856 1492.93 326.075 C 1508.57 327.423 1523.82 331.715 1537.87 338.725 C 1569.91 354.407 1592.63 380.599 1604.13 414.392 C 1608.04 425.741 1610.37 437.573 1611.06 449.557 C 1612.89 480.28 1611.43 526.67 1611.39 558.063 L 1611.34 761.173 L 1611.16 932.774 C 1611.33 985.545 1613.27 1037.81 1606.31 1090.23 C 1597.65 1155.39 1580.05 1225.41 1550.96 1284.55 C 1513 1362.23 1458.87 1430.89 1392.18 1485.91 C 1374.23 1500.6 1344.72 1518.68 1324.76 1532.33 L 1174.09 1634.67 L 1100.71 1684.71 C 1085.45 1695.11 1062.52 1712.52 1046 1718.75 C 1031.75 1724.13 1005.29 1721.52 992.486 1713.67 C 975.025 1702.98 955.285 1689.31 937.906 1677.62 L 886.029 1642.64 C 850.927 1618.85 828.078 1603.73 815.795 1559.9 C 806.983 1528.01 811.131 1493.94 827.335 1465.09 C 846.819 1431.05 884.199 1408.96 922.831 1406.34 C 945.61 1404.8 971.317 1406.74 994.652 1405.75 C 1025.77 1404.52 1056.65 1399.75 1086.7 1391.55 C 1193.76 1362.3 1285.74 1287.52 1340.5 1191.46 C 1397.97 1091.63 1413.15 972.963 1382.66 861.878 C 1352.25 751.303 1278.84 661.18 1179.64 604.683 C 1121.85 572.911 1049.22 551.079 983.012 550.917 L 910.232 551.114 C 888.613 551.091 864.545 550.471 843.327 552.499 C 797.468 556.883 746.535 578.715 713.975 611.791 C 683.806 642.439 664.911 682.732 656.275 724.612 C 649.093 759.44 649.994 791.284 649.941 826.46 L 649.921 916.495 L 650.34 1231.58 C 690.723 1219.55 735.062 1200.49 764.632 1170 C 792.563 1141.2 812.698 1109.56 823.031 1070.43 C 830.707 1041.36 829.378 1016.4 829.327 987 L 829.316 923.402 L 829.698 729.953 L 939.905 729.858 C 959.426 729.837 988.483 728.913 1006.75 731.576 C 1071.44 741.007 1131.1 780.419 1169.98 832.075 C 1208.04 883.432 1224.39 947.682 1215.53 1010.98 C 1200.16 1115.34 1112.26 1209.46 1006.76 1223.77 C 981.926 1227.14 951.549 1225.87 926.219 1226.04 C 815.052 1226.8 714.08 1281.22 670.131 1386.8 C 657.349 1417.39 651.169 1443.92 646.593 1476.81 C 634.782 1466.69 623.249 1456.24 612.007 1445.48 C 494.808 1331.97 438.066 1174.7 437.255 1013.67 C 436.601 883.902 437.136 753.891 437.097 624.11 L 437.034 509.409 C 437.028 487.871 436.077 452.008 439.68 431.785 C 444.006 406.763 455.786 383.63 473.478 365.415 C 506.92 331.264 539.947 325.772 584.837 325.482 z" fill="rgb(8,19,155)" transform="translate(0,0)"></path>
<metadata><recraft-signature>{"signed_by": "recraft", "signature_b64": "v1V4R7rIXqhHRxHVowyyYqjSjNUZPfbq4ei8/s44U5QnWs1riotvaDWs1LasdwyiEAI7fBwpi0w+3cwjn2I2AA==", "signing_algo": "Ed25519", "generation_timestamp": 1773671004, "identifier": "14f6f112-5b6d-422e-93a2-85dbec350825"}</recraft-signature></metadata></svg>